
<!-- telephone logo -->
<!-- <?xml version="1.0" ?><!DOCTYPE svg  PUBLIC '-//W3C//DTD SVG 1.1//EN'  'http://www.w3.org/Graphics/SVG/1.1/DTD/svg11.dtd'><svg enable-background="new 0 0 30 30" height="40px" id="Capa_1" version="1.1" viewBox="0 0 30 30" width="40px" xml:space="preserve" xmlns="http://www.w3.org/2000/svg" xmlns:xlink="http://www.w3.org/1999/xlink"><path d="M28.7,10.2c-2.5-3-7.6-4.8-13.7-4.8c0,0,0,0,0,0h0c0,0,0,0,0,0c-6,0-11.2,1.8-13.7,4.8c-1,1.2-1.4,2.6-1.1,4  c0.2,1.2,1,2.3,2,2.8c0.6,0.3,1.3,0.4,1.9,0.4c0.3,0,0.7,0,1-0.1c-0.2,0.6-0.3,1.2-0.4,1.9c-0.2,1.8,0.1,3.1,1,4.1  c1,1.2,2.6,1.3,3.2,1.3c0.2,0,0.3,0,0.3,0h11.7c1.3,0,2.5-0.5,3.2-1.4c1-1.2,1.2-2.9,1.1-4c-0.1-0.6-0.2-1.3-0.4-1.9  c0.3,0.1,0.7,0.1,1.1,0.1c0.6,0,1.3-0.1,1.9-0.4c1-0.5,1.8-1.6,2-2.8C30,12.8,29.7,11.3,28.7,10.2z M23,22.2  c-0.5,0.6-1.2,0.9-2.1,0.9l-11.8,0c-0.1,0-1.5,0.1-2.3-0.8c-0.5-0.6-0.7-1.6-0.6-2.9c0.5-4,3.2-6.4,3.7-6.8c1.4-1.1,3.3-1.8,5.2-1.8  c1.9,0,3.6,0.6,4.9,1.8c1.9,1.6,3.3,4.3,3.7,6.8C23.8,20.2,23.7,21.4,23,22.2z M28.3,13.9c-0.2,0.8-0.6,1.5-1.3,1.8  c-1.1,0.6-2.6,0.1-3-0.1c-0.7-1.6-1.8-3-3.1-4.1c-1.6-1.4-3.7-2.1-5.9-2.1c-2.2,0-4.4,0.8-6.1,2.1c-0.4,0.3-2.1,1.8-3.2,4.2  c-0.5,0.2-1.8,0.6-2.8,0c-0.6-0.3-1.1-1-1.3-1.8c-0.2-0.9,0.1-1.9,0.8-2.7C4.7,8.5,9.4,6.9,15,6.9c5.6,0,10.3,1.6,12.5,4.3  C28.2,12,28.5,12.9,28.3,13.9z M15,12.4c-2.2,0-4.1,1.6-4.1,3.5s1.8,3.5,4.1,3.5c2.2,0,4.1-1.6,4.1-3.5S17.2,12.4,15,12.4z M15,17.9  c-1.4,0-2.6-0.9-2.6-2s1.1-2,2.6-2c1.4,0,2.6,0.9,2.6,2S16.4,17.9,15,17.9z" fill="#ffa400"/></svg> -->

<!-- three layer mobile box -->
<!-- <svg width="40" height="50" viewBox="0 0 256 279" xmlns="http://www.w3.org/2000/svg" preserveAspectRatio="xMinYMin meet"><path d="M242.562 40.657c-.824-21.506-19.727-26.017-19.727-26.017s-65.518-9.873-94.22-13.457c-28.711-3.603-26.924 24.22-26.924 24.22s6.52 202.785 7.197 227.903c.769 29.925 28.702 25.109 28.702 25.109l98.711-17.07c17.95-3.593 18.839-26.007 18.839-26.007S243.48 64.135 242.562 40.657c-.824-21.506.917 23.478 0 0zm-22.08 172.259l-73.399 7.603s-21.376 3.26-21.857-22.71c-.352-19.134-4.585-128.737-4.585-128.737s-1.473-20.098 20.524-18.45c22.45 1.667 76.243 5.761 76.243 5.761s14.402 3.427 15.031 19.839c.676 17.838 6.891 116.901 6.891 116.901s1.62 16.282-18.848 19.793zM40.796 183.37l-13.56.964s-13.68 1.852-13.994-13.115c-.222-11.03-1.593-73.64-1.593-73.64s-.945-11.586 13.124-10.641c3.566.231 8.622.555 14.207.889-.194-10.383-.36-19.46-.49-26.368-7.743-.584-14.986-1.214-20.163-1.76C-.262 57.652.877 73.258.877 73.258S3.12 188.085 3.537 202.163c.51 16.782 18.579 14.059 18.579 14.059l19.292-2.065c-.167-8.327-.39-18.94-.611-30.786zM94.727 79a15.823 15.823 0 0 0-.676-3.992c-5.937-.481-20.84-4.362-25.618.686-3.029 3.177-1.779 9.873-1.705 13.68l10.809.61s9.215 1.973 9.614 11.42c.426 10.3.37 67.99.37 67.99s1.037 9.41-12.04 11.402l-6.863.51c.037 2.046.074 3.695.092 4.917.288 16.45 17.783 11.18 28.758 10.114.945-17.449-.732-35.426-1.12-52.884-.473-21.478-.649-42.993-1.621-64.453-.065-1.463.592 13.133 0 0z"/><path d="M100.404 203.08l-19.774 1.908s-18.44 2.648-18.838-18.598c-.287-15.68-2.14-104.556-2.14-104.556s-1.278-16.43 17.644-15.115c4.862.334 11.55.88 18.83 1.464-.547-17.051-.983-30.5-1.205-37.427-9.965-.973-19.357-1.954-26.303-2.75C43.61 25.17 45.186 47.278 45.186 47.278s2.973 163.025 3.556 182.947c.676 23.812 25.007 19.987 25.007 19.987l27.998-3.585c-.278-9.27-.75-24.84-1.343-43.548zM140.637 57.55c-3.5-.278-7.752-.046-10.345 2.686-2.742 2.871-2.788 6.946-2.63 10.632 9.919.862 17.115 1.5 17.115 1.5s12.392 2.789 12.957 16.218c.574 14.606 4.122 93.97 4.122 93.97s1.389 13.346-16.227 16.226l-13.337 1.278c1.77 20.848 28.73 12.05 42.52 10.624-1.416-31.351-5.806-128.312-6.797-151.078a4171.085 4171.085 0 0 0-27.378-2.056c-.685-.055 6.937.49 0 0z"/></svg> -->

<!-- shopping bag -->
<!-- <svg height="35" width="35" xmlns="http://www.w3.org/2000/svg" viewBox="64 0 383.37 512"><g fill="none" fill-rule="evenodd"><path d="M64 143.764h383.37V476.69H64zM254.424 0c-59.016 0-107.735 45.549-112.237 103.409v40.355h35.31v-30.266c0-43.182 35.006-78.188 78.188-78.188s78.187 35.006 78.187 78.188v30.266h35.31v-40.355C364.34 45.549 315.962 0 256.946 0c-.421 0-.841.002-1.261.007-.42-.005-.84-.007-1.261-.007z" fill="#5093f8"/><path d="M64 476.69h383.37V512H64z" fill="#fac200"/><path d="M119.488 393.458h148.808v30.266H119.488z" fill="#34a951"/><path d="M177.498 184.118l-58.01 37.833v171.507h148.808V221.951l-60.532-37.833v-40.354h-30.266z" fill="#fff"/><circle cx="193.892" cy="238.345" fill="#f6443f" r="18.916"/></g></svg> -->

<!-- mobile phone -->
<svg xmlns="http://www.w3.org/2000/svg" viewBox="0 0 48 48" width="46px" height="41px"><path fill="#1E88E5" d="M35,40c0,1.104-0.896,2-2,2H15c-1.104,0-2-0.896-2-2V7c0-1.104,0.896-2,2-2h18c1.104,0,2,0.896,2,2V40z"/><path fill="#283593" d="M16 8.001H32V28H16z"/><path fill="#ECEFF1" d="M24 29A1 1 0 1 0 24 31 1 1 0 1 0 24 29zM33 37c0 1.104-.896 2-2 2H17c-1.104 0-2-.896-2-2v-3c0-1.104.896-2 2-2h14c1.104 0 2 .896 2 2V37z"/><g><path fill="#9FA8DA" d="M15 35H33V36H15z"/><path fill="#9FA8DA" d="M20 32H21V39H20zM27 32H28V39H27z"/></g></svg>